<svg width="682.667" height="682.667" viewBox="0 0 512 512" xmlns="http://www.w3.org/2000/svg" xmlns:xlink="http://www.w3.org/1999/xlink" overflow="hidden"><path d="M475.074 0 36.9258 0C16.5313 0 2.84217e-14 16.5313 2.84217e-14 36.9258L2.84217e-14 475.074C2.84217e-14 495.469 16.5313 512 36.9258 512L273.5 512 273.5 314 207 314 207 236.5 273.5 236.5 273.5 179.465C273.5 113.324 313.879 77.3242 372.879 77.3242 401.137 77.3242 425.422 79.4297 432.5 80.3711L432.5 149.5 391.816 149.5C359.715 149.5 353.5 164.754 353.5 187.141L353.5 236.5 430.25 236.5 420.25 314 353.5 314 353.5 512 475.074 512C495.469 512 512 495.469 512 475.074L512 36.9258C512 16.5313 495.469-2.84217e-14 475.074-2.84217e-14Z" fill="#FFFFFF"/></svg>