<svg width="682.667" height="682.667" viewBox="0 0 512 512" xmlns="http://www.w3.org/2000/svg" xmlns:xlink="http://www.w3.org/1999/xlink" overflow="hidden"><path d="M261.477 124.469C191.23 124.469 134.102 181.574 134.07 251.77 134.063 275.824 140.797 299.25 153.543 319.52L156.57 324.336 143.703 371.316 191.902 358.676 196.555 361.434C216.105 373.035 238.52 379.172 261.371 379.18L261.422 379.18C331.613 379.18 388.742 322.07 388.773 251.871 388.785 217.852 375.551 185.867 351.508 161.805 327.465 137.742 295.488 124.48 261.477 124.469ZM336.383 306.504C333.191 315.441 317.898 323.602 310.543 324.703 303.945 325.688 295.602 326.098 286.43 323.188 280.867 321.422 273.738 319.066 264.602 315.125 226.199 298.547 201.117 259.891 199.203 257.336 197.289 254.781 183.57 236.582 183.57 217.742 183.57 198.906 193.461 189.645 196.969 185.816 200.48 181.984 204.629 181.027 207.18 181.027 209.73 181.027 212.285 181.051 214.516 181.16 216.867 181.277 220.023 180.266 223.129 187.73 226.32 195.395 233.977 214.23 234.934 216.145 235.891 218.063 236.527 220.297 235.254 222.852 233.977 225.406 227.953 233.102 225.684 235.941 223.992 238.051 221.77 239.922 224.004 243.754 226.234 247.582 233.922 260.117 245.301 270.266 259.926 283.305 272.262 287.344 276.09 289.262 279.914 291.176 282.148 290.855 284.383 288.305 286.613 285.75 293.953 277.129 296.504 273.297 299.055 269.465 301.609 270.105 305.117 271.383 308.629 272.656 327.449 281.918 331.277 283.832 335.105 285.75 337.656 286.707 338.613 288.305 339.574 289.902 339.574 297.563 336.383 306.504Z" fill="#FFFFFF"/><path d="M475.074 0 36.9258 0C16.5313 0 2.84217e-14 16.5313 2.84217e-14 36.9258L2.84217e-14 475.074C2.84217e-14 495.469 16.5313 512 36.9258 512L475.074 512C495.469 512 512 495.469 512 475.074L512 36.9258C512 16.5313 495.469-2.84217e-14 475.074-2.84217e-14ZM261.426 405.051C261.422 405.051 261.43 405.051 261.426 405.051L261.363 405.051C235.719 405.039 210.52 398.609 188.141 386.406L106.918 407.707 128.656 328.332C115.246 305.105 108.191 278.754 108.203 251.758 108.238 167.305 176.973 98.5977 261.426 98.5977 302.41 98.6133 340.883 114.566 369.809 143.516 398.738 172.469 414.66 210.953 414.645 251.879 414.609 336.336 345.867 405.051 261.426 405.051Z" fill="#FFFFFF"/></svg>